<?xml version="1.0" encoding="UTF-8" standalone="no"?>
<svg
   id="Layer_2"
   enable-background="new 0 0 512 512"
   height="256"
   viewBox="0 0 512 512"
   width="256"
   version="1.1"
   sodipodi:docname="logo.svg"
   inkscape:version="1.2.2 (b0a8486541, 2022-12-01)"
   xmlns:inkscape="http://www.inkscape.org/namespaces/inkscape"
   xmlns:sodipodi="http://sodipodi.sourceforge.net/DTD/sodipodi-0.dtd"
   xmlns="http://www.w3.org/2000/svg"
   xmlns:svg="http://www.w3.org/2000/svg">
  <defs
     id="defs29" />
  <sodipodi:namedview
     id="namedview27"
     pagecolor="#ffffff"
     bordercolor="#000000"
     borderopacity="0.25"
     inkscape:showpageshadow="2"
     inkscape:pageopacity="0.0"
     inkscape:pagecheckerboard="0"
     inkscape:deskcolor="#d1d1d1"
     showgrid="false"
     inkscape:zoom="2.0058594"
     inkscape:cx="193.93184"
     inkscape:cy="256.49854"
     inkscape:window-width="2560"
     inkscape:window-height="1371"
     inkscape:window-x="0"
     inkscape:window-y="0"
     inkscape:window-maximized="1"
     inkscape:current-layer="g24" />
  <g
     id="g24">
    <g
       id="g16"
       style="display:inline">
      <path
         d="m 448.045,197.602 c -17.673,0 -32,14.327 -32,32 v -27.233 c 0,-17.673 -14.327,-32 -32,-32 -17.673,0 -32,14.327 -32,32 v -21.994 c 0,-17.673 -14.327,-32 -32,-32 -17.673,0 -32,14.327 -32,32 V 68.5 c 0,-17.673 -14.327,-32 -32,-32 -17.673,0 -32,14.327 -32,32 v 215.316 l -36.229,-62.751 c -9.361,-16.213 -30.092,-21.768 -46.306,-12.408 -16.213,9.361 -21.768,30.092 -12.408,46.306 l 91.224,158.007 c 18.895,51.1 68.051,87.53 125.718,87.53 71.901,0 130.569,-56.631 133.849,-127.722 h 0.151 V 229.602 c 0.001,-17.673 -14.326,-32 -31.999,-32 z"
         fill="#ffd3b3"
         id="path2" />
      <g
         fill="#fcb98b"
         id="g14"
         style="display:inline">
        <path
           d="m 158.456,204.11 83.416,144.492 14.678,-8.474 -68.734,-119.062 c -6.271,-10.862 -17.661,-16.947 -29.36,-16.956 z"
           id="path4" />
        <path
           d="M 272.045,40.78 V 264.5 h 16 v -196 c 0,-11.84 -6.44,-22.19 -16,-27.72 z"
           id="path6" />
        <path
           d="M 336.045,152.655 V 264.5 h 16 v -84.125 c 0,-11.84 -6.44,-22.19 -16,-27.72 z"
           id="path8" />
        <path
           d="M 400.045,174.649 V 264.5 h 16 v -62.131 c 0,-11.84 -6.44,-22.19 -16,-27.72 z"
           id="path10" />
        <path
           d="m 464.045,201.88 v 228.17 c 10.21,-18.91 16,-40.55 16,-63.55 V 229.6 c 0,-11.84 -6.44,-22.19 -16,-27.72 z"
           id="path12" />
      </g>
    </g>
    <g
       fill="#6e83b7"
       id="g22"
       style="display:inline">
      <path
         d="m 432,11.5 70,50 -70,50 v -25 H 322 v -50 h 110 z"
         id="path18" />
      <path
         d="m 80,111.5 -70,-50 70,-50 v 25 h 110 v 50 H 80 Z"
         id="path20" />
    </g>
  </g>
</svg>
